# Blender v2.83.5 OBJ File: 'LowPoly Shurikens.blend'
# www.blender.org
mtllib Shuriken_12.mtl
o Shuriken_12
v -0.173496 0.300503 0.041284
v -0.346991 0.000001 0.041284
v -0.173496 -0.300501 0.041284
v 0.173494 -0.300501 0.041284
v 0.346989 0.000001 0.041284
v 0.173494 0.300503 0.041284
v -0.356946 0.618249 0.041284
v -0.356946 -0.618247 0.041284
v 0.713890 0.000001 0.041284
v 0.356945 0.618249 0.041284
v -1.012811 -0.584746 0.041284
v 0.000000 1.155346 0.041284
v 1.035195 -0.597669 0.041284
v -0.000001 0.000001 0.041284
v -0.173496 0.300503 -0.041284
v -0.346991 0.000001 -0.041284
v -0.173496 -0.300501 -0.041284
v 0.173494 -0.300501 -0.041284
v 0.346989 0.000001 -0.041284
v 0.173494 0.300503 -0.041284
v -0.356946 0.618249 -0.041284
v -0.713892 0.000001 -0.041284
v -0.356946 -0.618247 -0.041284
v 0.356945 -0.618247 -0.041284
v 0.713890 0.000001 -0.041284
v 0.356945 0.618249 -0.041284
v 0.000001 1.346924 0.000000
v -1.166469 -0.673461 -0.000000
v 1.166470 -0.673460 -0.000000
v -1.012811 -0.584746 -0.041284
v 0.000000 1.155346 -0.041284
v 1.035195 -0.597669 -0.041284
v -0.000001 0.000001 -0.041284
v -0.464774 0.622985 0.000000
v 0.476612 0.618249 0.000000
v 0.762819 0.090924 0.000000
v 0.305648 -0.713905 -0.000000
v -0.296385 -0.720818 -0.000000
v -0.776820 0.093100 0.000000
v 0.356945 -0.618247 0.041284
v -0.713892 0.000001 0.041284
vt 0.750000 0.750000
vt 0.750000 0.750000
vt 0.750000 0.750000
vt 0.750000 0.750000
vt 0.750000 0.750000
vt 0.750000 0.750000
vt 0.750000 0.750000
vt 0.750000 0.750000
vt 0.750000 0.750000
vt 0.750000 0.750000
vt 0.750000 0.750000
vt 0.750000 0.750000
vt 0.750000 0.750000
vt 0.750000 0.750000
vt 0.750000 0.750000
vt 0.750000 0.750000
vt 0.750000 0.750000
vt 0.750000 0.750000
vt 0.750000 0.750000
vt 0.750000 0.750000
vt 0.750000 0.750000
vt 0.750000 0.750000
vt 0.750000 0.750000
vt 0.750000 0.750000
vt 0.750000 0.750000
vt 0.750000 0.750000
vt 0.750000 0.750000
vt 0.250000 0.750000
vt 0.250000 0.750000
vt 0.250000 0.750000
vt 0.250000 0.750000
vt 0.250000 0.750000
vt 0.250000 0.750000
vt 0.250000 0.750000
vt 0.250000 0.750000
vt 0.250000 0.750000
vt 0.250000 0.750000
vt 0.250000 0.750000
vt 0.250000 0.750000
vt 0.250000 0.750000
vt 0.250000 0.750000
vt 0.250000 0.750000
vt 0.250000 0.750000
vt 0.250000 0.750000
vt 0.250000 0.750000
vt 0.250000 0.750000
vt 0.250000 0.750000
vt 0.250000 0.750000
vt 0.250000 0.750000
vt 0.250000 0.750000
vt 0.250000 0.750000
vt 0.250000 0.750000
vt 0.250000 0.750000
vt 0.250000 0.750000
vt 0.250000 0.750000
vt 0.250000 0.750000
vt 0.250000 0.750000
vt 0.250000 0.750000
vt 0.250000 0.750000
vt 0.250000 0.750000
vt 0.250000 0.750000
vt 0.250000 0.750000
vt 0.250000 0.750000
vt 0.250000 0.750000
vt 0.250000 0.750000
vn 0.3928 0.2091 0.8956
vn 0.0169 -0.4274 0.9039
vn -0.0205 -0.3878 0.9215
vn 0.3116 0.2052 0.9278
vn -0.3231 0.2106 0.9226
vn -0.3475 0.1771 0.9208
vn 0.3928 0.2091 -0.8956
vn 0.0169 -0.4274 -0.9039
vn -0.0205 -0.3878 -0.9215
vn 0.3116 0.2052 -0.9278
vn -0.3231 0.2106 -0.9226
vn -0.3475 0.1771 -0.9208
vn -0.0000 -0.0000 1.0000
vn -0.0000 1.0000 0.0000
vn -0.8660 0.5000 0.0000
vn 0.0000 -1.0000 0.0000
vn 0.8660 -0.5000 0.0000
vn -0.8660 -0.5000 0.0000
vn 0.8660 0.5000 0.0000
vn 0.0000 0.0000 -1.0000
vn 0.8285 0.5600 0.0000
vn 0.8611 0.5084 0.0000
vn -0.8813 0.4726 0.0000
vn -0.8806 0.4739 0.0000
vn -0.0439 -0.9990 0.0000
usemtl material_2
s off
f 9/1/1 13/2/1 29/3/1 36/4/1
f 37/5/2 29/3/2 13/2/2 40/6/2
f 8/7/3 11/8/3 28/9/3 38/10/3
f 10/11/4 35/12/4 27/13/4 12/14/4
f 34/15/5 7/16/5 12/14/5 27/13/5
f 39/17/6 28/9/6 11/8/6 41/18/6
f 25/19/7 36/4/7 29/3/7 32/20/7
f 37/5/8 24/21/8 32/20/8 29/3/8
f 23/22/9 38/10/9 28/9/9 30/23/9
f 26/24/10 31/25/10 27/13/10 35/12/10
f 34/15/11 27/13/11 31/25/11 21/26/11
f 39/17/12 22/27/12 30/23/12 28/9/12
usemtl material_1
f 11/28/13 8/29/13 41/30/13
f 41/30/13 8/29/13 3/31/13 2/32/13
f 12/33/13 7/34/13 10/35/13
f 10/35/13 7/34/13 1/36/13 6/37/13
f 40/38/13 9/39/13 5/40/13 4/41/13
f 13/42/13 9/39/13 40/38/13
f 4/41/13 14/43/13 3/31/13
f 6/37/13 1/36/13 14/43/13
f 6/37/13 14/43/13 5/40/13
f 2/32/13 14/43/13 1/36/13
f 4/41/13 5/40/13 14/43/13
f 3/31/13 14/43/13 2/32/13
f 9/39/14 25/44/14 19/45/14 5/40/14
f 15/46/15 16/47/15 2/32/15 1/36/15
f 2/32/14 16/47/14 22/48/14 41/30/14
f 15/46/16 20/49/16 6/37/16 1/36/16
f 8/29/17 23/50/17 17/51/17 3/31/17
f 7/34/18 21/52/18 15/46/18 1/36/18
f 4/41/18 18/53/18 24/54/18 40/38/18
f 19/45/19 20/49/19 6/37/19 5/40/19
f 6/37/17 20/49/17 26/55/17 10/35/17
f 19/45/17 5/40/17 4/41/17 18/53/17
f 16/47/19 2/32/19 3/31/19 17/51/19
f 30/56/20 22/48/20 23/50/20
f 22/48/20 16/47/20 17/51/20 23/50/20
f 31/57/20 26/55/20 21/52/20
f 26/55/20 20/49/20 15/46/20 21/52/20
f 24/54/20 18/53/20 19/45/20 25/44/20
f 32/58/20 24/54/20 25/44/20
f 18/53/20 17/51/20 33/59/20
f 20/49/20 33/59/20 15/46/20
f 20/49/20 19/45/20 33/59/20
f 16/47/20 15/46/20 33/59/20
f 18/53/20 33/59/20 19/45/20
f 17/51/20 16/47/20 33/59/20
f 39/60/21 41/30/21 22/48/21
f 38/61/22 23/50/22 8/29/22
f 37/62/23 40/38/23 24/54/23
f 36/63/24 25/44/24 9/39/24
f 35/64/16 10/35/16 26/55/16
f 34/65/25 21/52/25 7/34/25
f 17/51/16 18/53/16 4/41/16 3/31/16
