# Blender v2.83.5 OBJ File: 'LowPoly Shurikens.blend'
# www.blender.org
mtllib Shuriken_11.mtl
o Shuriken_11
v -0.762742 -0.762742 -0.025126
v -0.762742 -0.762742 0.025126
v -0.762742 0.762742 -0.025126
v -0.762742 0.762742 0.025126
v 0.762742 -0.762742 -0.025126
v 0.762742 -0.762742 0.025126
v 0.762742 0.762742 -0.025126
v 0.762742 0.762742 0.025126
v 0.000000 0.381371 -0.025126
v 0.000000 0.381371 0.025126
v 0.000000 -0.381371 -0.025126
v 0.000000 -0.381371 0.025126
v -0.381371 0.000000 -0.025126
v -0.381371 -0.000000 0.025126
v 0.381371 0.000000 -0.025126
v 0.381371 -0.000000 0.025126
v 0.114155 -0.076276 -0.025126
v 0.114155 -0.076276 0.025126
v 0.000000 0.137294 -0.025126
v 0.000000 0.137294 0.025126
v -0.026784 0.134656 0.025126
v -0.026784 0.134656 -0.025126
v -0.052540 0.126843 0.025126
v -0.052540 0.126843 -0.025126
v -0.126843 -0.052540 -0.025126
v -0.126843 -0.052540 0.025126
v -0.114156 -0.076276 -0.025126
v -0.114156 -0.076276 0.025126
v -0.134656 -0.026785 -0.025126
v -0.134656 -0.026785 0.025126
v -0.097081 -0.097081 -0.025126
v -0.097081 -0.097081 0.025126
v -0.026785 -0.134656 -0.025126
v -0.026785 -0.134656 0.025126
v -0.000000 -0.137294 -0.025126
v -0.000000 -0.137294 0.025126
v -0.052540 -0.126843 -0.025126
v -0.052540 -0.126843 0.025126
v 0.134656 0.026785 -0.025126
v 0.134656 0.026785 0.025126
v 0.076276 0.114155 -0.025126
v 0.076276 0.114155 0.025126
v 0.137294 0.000000 -0.025126
v 0.137294 0.000000 0.025126
v 0.126843 0.052540 -0.025126
v 0.126843 0.052540 0.025126
v 0.026785 -0.134656 -0.025126
v 0.026785 -0.134656 0.025126
v -0.097081 0.097081 0.025126
v -0.097081 0.097081 -0.025126
v -0.076276 0.114156 0.025126
v -0.076276 0.114156 -0.025126
v -0.114155 0.076276 0.025126
v -0.114155 0.076276 -0.025126
v 0.134656 -0.026785 -0.025126
v 0.134656 -0.026785 0.025126
v 0.076276 -0.114155 -0.025126
v 0.076276 -0.114155 0.025126
v 0.097081 -0.097081 -0.025126
v 0.097081 -0.097081 0.025126
v 0.126843 -0.052540 -0.025126
v 0.126843 -0.052540 0.025126
v -0.137294 0.000000 0.025126
v -0.137294 0.000000 -0.025126
v -0.076276 -0.114155 -0.025126
v -0.076276 -0.114155 0.025126
v -0.134655 0.026785 0.025126
v -0.134655 0.026785 -0.025126
v 0.097081 0.097081 -0.025126
v 0.097081 0.097081 0.025126
v 0.052540 -0.126843 -0.025126
v 0.052540 -0.126843 0.025126
v 0.114155 0.076276 -0.025126
v 0.114155 0.076276 0.025126
v -0.126843 0.052540 0.025126
v -0.126843 0.052540 -0.025126
v 0.052540 0.126843 -0.025126
v 0.052540 0.126843 0.025126
v 0.026785 0.134656 -0.025126
v 0.026785 0.134656 0.025126
v -0.876287 -0.876287 -0.000000
v -0.876287 0.876287 0.000000
v 0.876287 0.876287 0.000000
v 0.876287 -0.876287 -0.000000
v 0.000000 -0.438144 -0.000000
v 0.000000 0.438144 0.000000
v 0.438144 0.000000 0.000000
v -0.438144 0.000000 0.000000
v -0.381371 0.000000 -0.025126
v -0.381371 0.000000 -0.025126
v -0.762742 -0.762742 -0.025126
v -0.762742 -0.762742 -0.025126
v -0.876287 -0.876287 -0.000000
v -0.876287 -0.876287 -0.000000
v -0.876287 -0.876287 -0.000000
v -0.762742 -0.762742 0.025126
v -0.762742 -0.762742 0.025126
v -0.381371 -0.000000 0.025126
v -0.381371 -0.000000 0.025126
v -0.762742 0.762742 0.025126
v -0.762742 0.762742 0.025126
v -0.876287 0.876287 0.000000
v -0.876287 0.876287 0.000000
v -0.876287 0.876287 0.000000
v -0.762742 0.762742 -0.025126
v -0.762742 0.762742 -0.025126
v 0.000000 0.381371 -0.025126
v 0.000000 0.381371 -0.025126
v 0.000000 0.381371 0.025126
v 0.000000 0.381371 0.025126
v 0.762742 0.762742 0.025126
v 0.762742 0.762742 0.025126
v 0.876287 0.876287 0.000000
v 0.876287 0.876287 0.000000
v 0.876287 0.876287 0.000000
v 0.762742 0.762742 -0.025126
v 0.762742 0.762742 -0.025126
v 0.381371 0.000000 -0.025126
v 0.381371 0.000000 -0.025126
v 0.381371 -0.000000 0.025126
v 0.381371 -0.000000 0.025126
v 0.762742 -0.762742 0.025126
v 0.762742 -0.762742 0.025126
v 0.876287 -0.876287 -0.000000
v 0.876287 -0.876287 -0.000000
v 0.876287 -0.876287 -0.000000
v 0.762742 -0.762742 -0.025126
v 0.762742 -0.762742 -0.025126
v 0.000000 -0.381371 -0.025126
v 0.000000 -0.381371 -0.025126
v 0.000000 -0.381371 0.025126
v 0.000000 -0.381371 0.025126
v 0.000000 -0.438144 -0.000000
v 0.000000 -0.438144 -0.000000
v 0.000000 -0.438144 -0.000000
v 0.000000 0.438144 0.000000
v 0.000000 0.438144 0.000000
v 0.000000 0.438144 0.000000
v 0.438144 0.000000 0.000000
v 0.438144 0.000000 0.000000
v 0.438144 0.000000 0.000000
v -0.438144 0.000000 0.000000
v -0.438144 0.000000 0.000000
v -0.438144 0.000000 0.000000
v 0.114155 -0.076276 -0.025126
v 0.126843 -0.052540 -0.025126
v 0.114155 -0.076276 0.025126
v 0.126843 -0.052540 0.025126
v 0.000000 0.137294 0.025126
v -0.026784 0.134656 0.025126
v -0.026784 0.134656 -0.025126
v 0.000000 0.137294 -0.025126
v -0.052540 0.126843 0.025126
v -0.052540 0.126843 -0.025126
v -0.126843 -0.052540 0.025126
v -0.134656 -0.026785 0.025126
v -0.114156 -0.076276 -0.025126
v -0.126843 -0.052540 -0.025126
v -0.114156 -0.076276 0.025126
v -0.097081 -0.097081 -0.025126
v -0.097081 -0.097081 0.025126
v -0.134656 -0.026785 -0.025126
v -0.137294 0.000000 -0.025126
v -0.137294 0.000000 0.025126
v -0.026785 -0.134656 0.025126
v -0.052540 -0.126843 0.025126
v -0.000000 -0.137294 -0.025126
v -0.026785 -0.134656 -0.025126
v -0.000000 -0.137294 0.025126
v -0.052540 -0.126843 -0.025126
v 0.134656 0.026785 -0.025126
v 0.126843 0.052540 -0.025126
v 0.134656 0.026785 0.025126
v 0.126843 0.052540 0.025126
v 0.076276 0.114155 -0.025126
v 0.052540 0.126843 -0.025126
v 0.076276 0.114155 0.025126
v 0.052540 0.126843 0.025126
v 0.137294 0.000000 -0.025126
v 0.137294 0.000000 0.025126
v 0.114155 0.076276 -0.025126
v 0.114155 0.076276 0.025126
v -0.097081 0.097081 -0.025126
v -0.076276 0.114156 -0.025126
v -0.076276 0.114156 0.025126
v -0.097081 0.097081 0.025126
v 0.026785 -0.134656 -0.025126
v 0.026785 -0.134656 0.025126
v -0.114155 0.076276 0.025126
v -0.114155 0.076276 -0.025126
v 0.134656 -0.026785 -0.025126
v 0.134656 -0.026785 0.025126
v 0.076276 -0.114155 -0.025126
v 0.097081 -0.097081 -0.025126
v 0.076276 -0.114155 0.025126
v 0.097081 -0.097081 0.025126
v -0.076276 -0.114155 -0.025126
v -0.076276 -0.114155 0.025126
v -0.134655 0.026785 0.025126
v -0.134655 0.026785 -0.025126
v 0.097081 0.097081 -0.025126
v 0.097081 0.097081 0.025126
v 0.052540 -0.126843 -0.025126
v 0.052540 -0.126843 0.025126
v -0.126843 0.052540 -0.025126
v -0.126843 0.052540 0.025126
v 0.026785 0.134656 -0.025126
v 0.026785 0.134656 0.025126
vt 0.250000 0.750000
vt 0.250000 0.750000
vt 0.250000 0.750000
vt 0.250000 0.750000
vt 0.250000 0.750000
vt 0.250000 0.750000
vt 0.250000 0.750000
vt 0.250000 0.750000
vt 0.250000 0.750000
vt 0.250000 0.750000
vt 0.250000 0.750000
vt 0.250000 0.750000
vt 0.250000 0.750000
vt 0.250000 0.750000
vt 0.250000 0.750000
vt 0.250000 0.750000
vt 0.250000 0.750000
vt 0.250000 0.750000
vt 0.250000 0.750000
vt 0.250000 0.750000
vt 0.250000 0.750000
vt 0.250000 0.750000
vt 0.250000 0.750000
vt 0.250000 0.750000
vt 0.250000 0.750000
vt 0.250000 0.750000
vt 0.250000 0.750000
vt 0.250000 0.750000
vt 0.250000 0.750000
vt 0.250000 0.750000
vt 0.250000 0.750000
vt 0.250000 0.750000
vt 0.250000 0.750000
vt 0.250000 0.750000
vt 0.250000 0.750000
vt 0.250000 0.750000
vt 0.250000 0.750000
vt 0.250000 0.750000
vt 0.250000 0.750000
vt 0.250000 0.750000
vt 0.250000 0.750000
vt 0.250000 0.750000
vt 0.250000 0.750000
vt 0.250000 0.750000
vt 0.250000 0.750000
vt 0.250000 0.750000
vt 0.250000 0.750000
vt 0.250000 0.750000
vt 0.250000 0.750000
vt 0.250000 0.750000
vt 0.250000 0.750000
vt 0.250000 0.750000
vt 0.250000 0.750000
vt 0.250000 0.750000
vt 0.250000 0.750000
vt 0.250000 0.750000
vt 0.250000 0.750000
vt 0.250000 0.750000
vt 0.250000 0.750000
vt 0.250000 0.750000
vt 0.250000 0.750000
vt 0.250000 0.750000
vt 0.250000 0.750000
vt 0.250000 0.750000
vt 0.250000 0.750000
vt 0.250000 0.750000
vt 0.250000 0.750000
vt 0.250000 0.750000
vt 0.250000 0.750000
vt 0.250000 0.750000
vt 0.250000 0.750000
vt 0.250000 0.750000
vt 0.250000 0.750000
vt 0.250000 0.750000
vt 0.250000 0.750000
vt 0.250000 0.750000
vt 0.250000 0.750000
vt 0.250000 0.750000
vt 0.250000 0.750000
vt 0.250000 0.750000
vt 0.250000 0.750000
vt 0.250000 0.750000
vt 0.250000 0.750000
vt 0.250000 0.750000
vt 0.250000 0.750000
vt 0.250000 0.750000
vt 0.250000 0.750000
vt 0.250000 0.750000
vt 0.250000 0.750000
vt 0.250000 0.750000
vt 0.250000 0.750000
vt 0.250000 0.750000
vt 0.250000 0.750000
vt 0.250000 0.750000
vt 0.250000 0.750000
vt 0.250000 0.750000
vt 0.250000 0.750000
vt 0.250000 0.750000
vt 0.250000 0.750000
vt 0.250000 0.750000
vt 0.250000 0.750000
vt 0.250000 0.750000
vt 0.250000 0.750000
vt 0.250000 0.750000
vt 0.250000 0.750000
vt 0.250000 0.750000
vt 0.250000 0.750000
vt 0.250000 0.750000
vt 0.250000 0.750000
vt 0.250000 0.750000
vt 0.250000 0.750000
vt 0.250000 0.750000
vt 0.250000 0.750000
vt 0.250000 0.750000
vt 0.250000 0.750000
vt 0.250000 0.750000
vt 0.250000 0.750000
vt 0.250000 0.750000
vt 0.250000 0.750000
vt 0.250000 0.750000
vt 0.250000 0.750000
vt 0.250000 0.750000
vt 0.250000 0.750000
vt 0.250000 0.750000
vt 0.250000 0.750000
vt 0.250000 0.750000
vt 0.250000 0.750000
vt 0.250000 0.750000
vt 0.250000 0.750000
vt 0.250000 0.750000
vt 0.250000 0.750000
vt 0.250000 0.750000
vt 0.250000 0.750000
vt 0.250000 0.750000
vt 0.250000 0.750000
vt 0.250000 0.750000
vt 0.250000 0.750000
vt 0.250000 0.750000
vt 0.250000 0.750000
vt 0.250000 0.750000
vt 0.250000 0.750000
vt 0.250000 0.750000
vt 0.250000 0.750000
vt 0.250000 0.750000
vt 0.750000 0.750000
vt 0.750000 0.750000
vt 0.750000 0.750000
vt 0.750000 0.750000
vt 0.750000 0.750000
vt 0.750000 0.750000
vt 0.750000 0.750000
vt 0.750000 0.750000
vt 0.750000 0.750000
vt 0.750000 0.750000
vt 0.750000 0.750000
vt 0.750000 0.750000
vt 0.750000 0.750000
vt 0.750000 0.750000
vt 0.750000 0.750000
vt 0.750000 0.750000
vt 0.750000 0.750000
vt 0.750000 0.750000
vt 0.750000 0.750000
vt 0.750000 0.750000
vt 0.750000 0.750000
vt 0.750000 0.750000
vt 0.750000 0.750000
vt 0.750000 0.750000
vt 0.750000 0.750000
vt 0.750000 0.750000
vt 0.750000 0.750000
vt 0.750000 0.750000
vt 0.750000 0.750000
vt 0.750000 0.750000
vt 0.750000 0.750000
vt 0.750000 0.750000
vt 0.750000 0.750000
vt 0.750000 0.750000
vt 0.750000 0.750000
vt 0.750000 0.750000
vt 0.750000 0.750000
vt 0.750000 0.750000
vt 0.750000 0.750000
vt 0.750000 0.750000
vt 0.750000 0.750000
vt 0.750000 0.750000
vt 0.750000 0.750000
vt 0.750000 0.750000
vt 0.750000 0.750000
vt 0.750000 0.750000
vt 0.750000 0.750000
vt 0.750000 0.750000
vt 0.750000 0.750000
vt 0.750000 0.750000
vt 0.750000 0.750000
vt 0.750000 0.750000
vt 0.750000 0.750000
vt 0.750000 0.750000
vt 0.750000 0.750000
vt 0.750000 0.750000
vt 0.750000 0.750000
vt 0.750000 0.750000
vt 0.750000 0.750000
vt 0.750000 0.750000
vt 0.750000 0.750000
vt 0.750000 0.750000
vt 0.750000 0.750000
vt 0.750000 0.750000
vn 0.0000 0.0000 1.0000
vn 0.0000 0.0000 -1.0000
vn -0.9808 0.1951 0.0000
vn -1.0000 0.0000 0.0000
vn -0.7071 0.7071 0.0000
vn -0.8314 0.5556 0.0000
vn -0.9239 0.3827 0.0000
vn 0.9808 -0.1951 0.0000
vn 1.0000 0.0000 0.0000
vn -0.9808 -0.1951 0.0000
vn -0.9239 -0.3827 0.0000
vn -0.8314 -0.5556 0.0000
vn -0.7071 -0.7071 0.0000
vn 0.0000 -1.0000 0.0000
vn 0.1951 -0.9808 0.0000
vn 0.1951 0.9808 0.0000
vn 0.0000 1.0000 0.0000
vn 0.8314 -0.5556 0.0000
vn 0.9239 -0.3827 0.0000
vn -0.1951 0.9808 0.0000
vn 0.3827 -0.9239 0.0000
vn -0.5556 -0.8314 0.0000
vn 0.5556 0.8314 0.0000
vn 0.3827 0.9239 0.0000
vn -0.3827 -0.9239 0.0000
vn -0.5556 0.8314 0.0000
vn 0.5556 -0.8314 0.0000
vn 0.7071 -0.7071 0.0000
vn -0.3827 0.9239 0.0000
vn 0.7071 0.7071 0.0000
vn 0.9239 0.3827 0.0000
vn 0.8314 0.5556 0.0000
vn -0.1951 -0.9808 0.0000
vn 0.9808 0.1951 0.0000
vn -0.3966 -0.1983 0.8963
vn -0.1983 0.3966 0.8963
vn 0.3966 0.1983 0.8963
vn 0.1983 -0.3966 0.8963
vn -0.1983 -0.3966 0.8963
vn 0.1983 0.3966 0.8963
vn 0.3966 -0.1983 0.8963
vn -0.3966 0.1983 0.8963
vn -0.3966 0.1983 -0.8963
vn 0.3966 -0.1983 -0.8963
vn 0.1983 0.3966 -0.8963
vn -0.1983 -0.3966 -0.8963
vn 0.1983 -0.3966 -0.8963
vn 0.3966 0.1983 -0.8963
vn -0.1983 0.3966 -0.8963
vn -0.3966 -0.1983 -0.8963
usemtl material_1
s 1
f 121/1/1 180/2/1 192/3/1 148/4/1 147/5/1 196/6/1 195/7/1 204/8/1 188/9/1 169/10/1 132/11/1 123/12/1
f 89/13/2 163/14/2 162/15/2 158/16/2 157/17/2 160/18/2 197/19/2 170/20/2 168/21/2 167/22/2 129/23/2 91/24/2
f 106/25/2 107/26/2 152/27/2 151/28/2 154/29/2 184/30/2 183/31/2 190/32/2 205/33/2 200/34/2 163/14/2 89/13/2
f 112/35/1 10/36/1 149/37/1 208/38/1 178/39/1 177/40/1 202/41/1 182/42/1 174/43/1 173/44/1 180/2/1 121/1/1
f 10/36/1 4/45/1 14/46/1 63/47/1 199/48/1 206/49/1 189/50/1 186/51/1 185/52/1 153/53/1 150/54/1 149/37/1
f 107/26/2 117/55/2 118/56/2 179/57/2 171/58/2 172/59/2 181/60/2 201/61/2 175/62/2 176/63/2 207/64/2 152/27/2
f 191/65/3 56/66/3 44/67/4 43/68/4
f 194/69/5 60/70/5 18/71/6 145/72/6
f 145/72/6 18/71/6 62/73/7 146/74/7
f 68/75/8 67/76/8 164/77/9 64/78/9
f 39/79/10 40/80/10 46/81/11 45/82/11
f 43/68/4 44/67/4 40/80/10 39/79/10
f 73/83/12 74/84/12 70/85/13 69/86/13
f 19/87/14 20/88/14 21/89/15 22/90/15
f 33/91/16 165/92/16 36/93/17 35/94/17
f 54/95/18 53/96/18 75/97/19 76/98/19
f 35/94/17 36/93/17 48/99/20 187/100/20
f 22/90/15 21/89/15 23/101/21 24/102/21
f 69/86/13 70/85/13 42/103/22 41/104/22
f 65/105/23 198/106/23 166/107/24 37/108/24
f 41/104/22 42/103/22 78/109/25 77/110/25
f 193/111/26 58/112/26 60/70/5 194/69/5
f 52/113/27 51/114/27 49/115/28 50/116/28
f 76/98/19 75/97/19 67/76/8 68/75/8
f 167/22/2 47/117/2 203/118/2 57/119/2 59/120/2 17/121/2 61/122/2 55/123/2 179/57/2 118/56/2 128/124/2 129/23/2
f 71/125/29 72/126/29 58/112/26 193/111/26
f 31/127/30 32/128/30 198/106/23 65/105/23
f 25/129/31 155/130/31 159/131/32 27/132/32
f 79/133/33 80/134/33 20/88/14 19/87/14
f 45/82/11 46/81/11 74/84/12 73/83/12
f 64/78/9 164/77/9 156/135/34 29/136/34
f 146/74/7 62/73/7 56/66/3 191/65/3
f 37/108/24 166/107/24 165/92/16 33/91/16
f 24/102/21 23/101/21 51/114/27 52/113/27
f 77/110/25 78/109/25 80/134/33 79/133/33
f 187/100/20 48/99/20 72/126/29 71/125/29
f 29/136/34 156/135/34 155/130/31 25/129/31
f 50/116/28 49/115/28 53/96/18 54/95/18
f 169/10/1 34/137/1 38/138/1 66/139/1 161/140/1 28/141/1 26/142/1 30/143/1 63/47/1 14/46/1 2/144/1 132/11/1
f 27/132/32 159/131/32 32/128/30 31/127/30
usemtl material_2
f 143/145/35 98/146/35 100/147/35 103/148/35
f 137/149/36 109/150/36 111/151/36 114/152/36
f 140/153/37 120/154/37 122/155/37 125/156/37
f 134/157/38 131/158/38 96/159/38 93/160/38
f 126/161/39 6/162/39 12/163/39 135/164/39
f 104/165/40 101/166/40 110/167/40 138/168/40
f 115/169/41 8/170/41 16/171/41 141/172/41
f 95/173/42 97/174/42 99/175/42 144/176/42
f 92/177/43 94/178/43 142/179/43 90/180/43
f 116/181/44 113/182/44 139/183/44 119/184/44
f 105/185/45 102/186/45 136/187/45 108/188/45
f 127/189/46 124/190/46 133/191/46 130/192/46
f 11/193/47 85/194/47 81/195/47 1/196/47
f 15/197/48 87/198/48 84/199/48 5/200/48
f 9/201/49 86/202/49 83/203/49 7/204/49
f 13/205/50 88/206/50 82/207/50 3/208/50
